<?xml version="1.0" encoding="utf-8"?>
<!-- Generator: Adobe Illustrator 30.5.1, SVG Export Plug-In . SVG Version: 9.03 Build 0)  -->
<svg version="1.0" id="?łņØ┤??1" xmlns="http://www.w3.org/2000/svg" xmlns:xlink="http://www.w3.org/1999/xlink" x="0px"
	 y="0px" viewBox="205.69 393.83 41.86 35.91" style="enable-background:new 0 0 595.28 841.89;" xml:space="preserve">
<style type="text/css">
	.st0{fill:#153266;}
	.st1{fill:#065595;}
	.st2{fill:#5D93C1;}
	.st3{fill:none;}
</style>
<g>
	<g>
		<polygon class="st0" points="242.55,410.03 242.53,417.37 229.85,424.74 229.87,417.4 		"/>
		<polygon class="st1" points="229.87,417.4 229.85,424.74 210.69,413.68 210.71,406.35 		"/>
		<polygon class="st2" points="242.55,410.03 229.87,417.4 210.71,406.35 223.4,398.97 		"/>
	</g>
	<g>
		<polygon class="st3" points="223.44,406.35 217.1,410.03 210.71,406.35 217.06,402.66 		"/>
		<g>
			<path class="st1" d="M220.19,404.46c0,1.03-0.01,1.19-0.01,1.65c0,0.46-0.29,0.91-0.89,1.26c-1.2,0.7-3.15,0.7-4.35,0
				c-0.6-0.35-0.91-0.8-0.91-1.26c0-0.46,0.01-1.69,0.01-1.69S218.01,404.46,220.19,404.46z"/>
			<path class="st2" d="M219.28,403.21c1.21,0.7,1.21,1.82,0.01,2.52c-1.2,0.7-3.15,0.7-4.35,0c-1.21-0.7-1.21-1.82-0.01-2.52
				C216.13,402.51,218.08,402.51,219.28,403.21z"/>
		</g>
	</g>
	<g>
		<polygon class="st3" points="229.83,410.03 223.48,413.72 217.1,410.03 223.44,406.35 		"/>
		<g>
			<path class="st1" d="M226.57,408.14c0,1.03-0.01,1.19-0.01,1.65c0,0.46-0.3,0.91-0.89,1.26c-1.2,0.7-3.15,0.7-4.35,0
				c-0.6-0.35-0.91-0.8-0.91-1.26c0-0.46,0.01-1.69,0.01-1.69S224.4,408.14,226.57,408.14z"/>
			<path class="st2" d="M225.67,406.9c1.21,0.7,1.21,1.82,0.01,2.52c-1.2,0.7-3.15,0.7-4.35,0c-1.21-0.7-1.21-1.82-0.01-2.52
				C222.51,406.2,224.46,406.2,225.67,406.9z"/>
		</g>
	</g>
	<g>
		<polygon class="st3" points="236.21,413.72 229.87,417.4 223.48,413.72 229.83,410.03 		"/>
		<g>
			<path class="st1" d="M232.96,411.83c0,1.03-0.01,1.19-0.01,1.65c0,0.46-0.29,0.91-0.89,1.26c-1.2,0.7-3.15,0.7-4.35,0
				c-0.6-0.35-0.91-0.8-0.91-1.26c0-0.46,0.01-1.69,0.01-1.69S230.78,411.83,232.96,411.83z"/>
			<path class="st2" d="M232.05,410.58c1.21,0.7,1.21,1.82,0.01,2.52c-1.2,0.7-3.15,0.7-4.35,0c-1.21-0.7-1.21-1.82-0.01-2.52
				C228.9,409.89,230.84,409.89,232.05,410.58z"/>
		</g>
	</g>
	<g>
		<polygon class="st3" points="229.78,402.66 223.44,406.35 217.06,402.66 223.4,398.97 		"/>
		<g>
			<path class="st1" d="M226.53,400.77c0,1.03-0.01,1.19-0.01,1.65c0,0.46-0.29,0.91-0.89,1.26c-1.2,0.7-3.15,0.7-4.35,0
				c-0.6-0.35-0.91-0.8-0.91-1.26c0-0.46,0.01-1.69,0.01-1.69S224.36,400.77,226.53,400.77z"/>
			<path class="st2" d="M225.62,399.53c1.21,0.7,1.21,1.82,0.01,2.52c-1.2,0.7-3.15,0.7-4.35,0c-1.21-0.7-1.21-1.82-0.01-2.52
				C222.47,398.83,224.42,398.83,225.62,399.53z"/>
		</g>
	</g>
	<g>
		<polygon class="st3" points="236.17,406.35 229.83,410.03 223.44,406.35 229.78,402.66 		"/>
		<g>
			<path class="st1" d="M232.92,404.46c0,1.03-0.01,1.19-0.01,1.65c0,0.46-0.29,0.91-0.89,1.26c-1.2,0.7-3.15,0.7-4.35,0
				c-0.6-0.35-0.91-0.8-0.91-1.26c0-0.46,0.01-1.69,0.01-1.69S230.74,404.46,232.92,404.46z"/>
			<path class="st2" d="M232.01,403.21c1.21,0.7,1.21,1.82,0.01,2.52s-3.15,0.7-4.35,0c-1.21-0.7-1.21-1.82-0.01-2.52
				C228.86,402.51,230.8,402.51,232.01,403.21z"/>
		</g>
	</g>
	<g>
		<polygon class="st3" points="242.55,410.03 236.21,413.72 229.83,410.03 236.17,406.35 		"/>
		<g>
			<path class="st1" d="M239.3,408.14c0,1.03-0.01,1.19-0.01,1.65c0,0.46-0.29,0.91-0.89,1.26c-1.2,0.7-3.15,0.7-4.35,0
				c-0.6-0.35-0.91-0.8-0.91-1.26c0-0.46,0.01-1.69,0.01-1.69S237.12,408.14,239.3,408.14z"/>
			<path class="st2" d="M238.39,406.9c1.21,0.7,1.21,1.82,0.01,2.52c-1.2,0.7-3.15,0.7-4.35,0c-1.21-0.7-1.21-1.82-0.01-2.52
				C235.24,406.2,237.19,406.2,238.39,406.9z"/>
		</g>
	</g>
</g>
</svg>
