<?xml version="1.0" encoding="utf-8"?>
<!-- Generator: Adobe Illustrator 30.5.1, SVG Export Plug-In . SVG Version: 9.03 Build 0)  -->
<svg version="1.0" id="block" xmlns="http://www.w3.org/2000/svg" xmlns:xlink="http://www.w3.org/1999/xlink" x="0px"
	 y="0px" viewBox="319.72 393.83 61.01 46.97" style="enable-background:new 0 0 595.28 841.89;" xml:space="preserve">
<style type="text/css">
	.st0{fill:#153266;}
	.st1{fill:#065595;}
	.st2{fill:#5D93C1;}
	.st3{fill:none;}
</style>
<g>
	<g>
		<polygon class="st0" points="375.73,421.09 375.71,428.43 363.02,435.8 363.04,428.46 		"/>
		<polygon class="st1" points="363.04,428.46 363.02,435.8 324.72,413.68 324.74,406.35 		"/>
		<polygon class="st2" points="375.73,421.09 363.04,428.46 324.74,406.35 337.42,398.97 		"/>
	</g>
	<g>
		<polygon class="st3" points="337.46,406.35 331.12,410.03 324.74,406.35 331.08,402.66 		"/>
		<g>
			<path class="st1" d="M334.21,404.46c0,1.03-0.01,1.19-0.01,1.65c0,0.46-0.29,0.91-0.89,1.26c-1.2,0.7-3.15,0.7-4.35,0
				c-0.6-0.35-0.91-0.8-0.91-1.26c0-0.46,0.01-1.69,0.01-1.69S332.04,404.46,334.21,404.46z"/>
			<path class="st2" d="M333.31,403.21c1.21,0.7,1.21,1.82,0.01,2.52c-1.2,0.7-3.15,0.7-4.35,0c-1.21-0.7-1.21-1.82-0.01-2.52
				C330.15,402.51,332.1,402.51,333.31,403.21z"/>
		</g>
	</g>
	<g>
		<polygon class="st3" points="343.85,410.03 337.51,413.72 331.12,410.03 337.46,406.35 		"/>
		<g>
			<path class="st1" d="M340.6,408.14c0,1.03-0.01,1.19-0.01,1.65c0,0.46-0.29,0.91-0.89,1.26c-1.2,0.7-3.15,0.7-4.35,0
				c-0.6-0.35-0.91-0.8-0.91-1.26c0-0.46,0.01-1.69,0.01-1.69S338.42,408.14,340.6,408.14z"/>
			<path class="st2" d="M339.69,406.9c1.21,0.7,1.21,1.82,0.01,2.52c-1.2,0.7-3.15,0.7-4.35,0c-1.21-0.7-1.21-1.82-0.01-2.52
				C336.54,406.2,338.48,406.2,339.69,406.9z"/>
		</g>
	</g>
	<g>
		<polygon class="st3" points="350.23,413.72 343.89,417.4 337.51,413.72 343.85,410.03 		"/>
		<g>
			<path class="st1" d="M346.98,411.83c0,1.03-0.01,1.19-0.01,1.65c0,0.46-0.29,0.91-0.89,1.26c-1.2,0.7-3.15,0.7-4.35,0
				c-0.6-0.35-0.91-0.8-0.91-1.26c0-0.46,0.01-1.69,0.01-1.69S344.81,411.83,346.98,411.83z"/>
			<path class="st2" d="M346.07,410.58c1.21,0.7,1.21,1.82,0.01,2.52c-1.2,0.7-3.15,0.7-4.35,0c-1.21-0.7-1.21-1.82-0.01-2.52
				C342.92,409.89,344.87,409.89,346.07,410.58z"/>
		</g>
	</g>
	<g>
		<polygon class="st3" points="356.62,417.4 350.27,421.09 343.89,417.4 350.23,413.72 		"/>
		<g>
			<path class="st1" d="M353.37,415.51c0,1.03-0.01,1.19-0.01,1.65c0,0.46-0.29,0.91-0.89,1.26c-1.2,0.7-3.15,0.7-4.35,0
				c-0.6-0.35-0.91-0.8-0.91-1.26c0-0.46,0.01-1.69,0.01-1.69S351.19,415.51,353.37,415.51z"/>
			<path class="st2" d="M352.46,414.27c1.21,0.7,1.21,1.82,0.01,2.52c-1.2,0.7-3.15,0.7-4.35,0c-1.21-0.7-1.21-1.82-0.01-2.52
				C349.31,413.57,351.25,413.57,352.46,414.27z"/>
		</g>
	</g>
	<g>
		<polygon class="st3" points="363,421.09 356.66,424.78 350.27,421.09 356.62,417.4 		"/>
		<g>
			<path class="st1" d="M359.75,419.2c0,1.03-0.01,1.19-0.01,1.65c0,0.46-0.29,0.91-0.89,1.26c-1.2,0.7-3.15,0.7-4.35,0
				c-0.6-0.35-0.91-0.8-0.91-1.26c0-0.46,0.01-1.69,0.01-1.69S357.57,419.2,359.75,419.2z"/>
			<path class="st2" d="M358.84,417.95c1.21,0.7,1.21,1.82,0.01,2.52c-1.2,0.7-3.15,0.7-4.35,0c-1.21-0.7-1.21-1.82-0.01-2.52
				C355.69,417.26,357.64,417.26,358.84,417.95z"/>
		</g>
	</g>
	<g>
		<polygon class="st3" points="369.39,424.78 363.04,428.46 356.66,424.78 363,421.09 		"/>
		<g>
			<path class="st1" d="M366.14,422.89c0,1.03-0.01,1.19-0.01,1.65c0,0.46-0.29,0.91-0.89,1.26c-1.2,0.7-3.15,0.7-4.35,0
				c-0.6-0.35-0.91-0.8-0.91-1.26c0-0.46,0.01-1.69,0.01-1.69S363.96,422.89,366.14,422.89z"/>
			<path class="st2" d="M365.23,421.64c1.21,0.7,1.21,1.82,0.01,2.52c-1.2,0.7-3.15,0.7-4.35,0c-1.21-0.7-1.21-1.82-0.01-2.52
				C362.07,420.94,364.02,420.94,365.23,421.64z"/>
		</g>
	</g>
	<g>
		<polygon class="st3" points="343.81,402.66 337.46,406.35 331.08,402.66 337.42,398.97 		"/>
		<g>
			<path class="st1" d="M340.56,400.77c0,1.03-0.01,1.19-0.01,1.65c0,0.46-0.29,0.91-0.89,1.26c-1.2,0.7-3.15,0.7-4.35,0
				c-0.6-0.35-0.91-0.8-0.91-1.26c0-0.46,0.01-1.69,0.01-1.69S338.38,400.77,340.56,400.77z"/>
			<path class="st2" d="M339.65,399.53c1.21,0.7,1.21,1.82,0.01,2.52c-1.2,0.7-3.15,0.7-4.35,0c-1.21-0.7-1.21-1.82-0.01-2.52
				C336.49,398.83,338.44,398.83,339.65,399.53z"/>
		</g>
	</g>
	<g>
		<polygon class="st3" points="350.19,406.35 343.85,410.03 337.46,406.35 343.81,402.66 		"/>
		<g>
			<path class="st1" d="M346.94,404.46c0,1.03-0.01,1.19-0.01,1.65c0,0.46-0.29,0.91-0.89,1.26c-1.2,0.7-3.15,0.7-4.35,0
				c-0.6-0.35-0.91-0.8-0.91-1.26c0-0.46,0.01-1.69,0.01-1.69S344.76,404.46,346.94,404.46z"/>
			<path class="st2" d="M346.03,403.21c1.21,0.7,1.21,1.82,0.01,2.52c-1.2,0.7-3.15,0.7-4.35,0c-1.21-0.7-1.21-1.82-0.01-2.52
				C342.88,402.51,344.83,402.51,346.03,403.21z"/>
		</g>
	</g>
	<g>
		<polygon class="st3" points="356.58,410.03 350.23,413.72 343.85,410.03 350.19,406.35 		"/>
		<g>
			<path class="st1" d="M353.32,408.14c0,1.03-0.01,1.19-0.01,1.65c0,0.46-0.29,0.91-0.89,1.26c-1.2,0.7-3.15,0.7-4.35,0
				c-0.6-0.35-0.91-0.8-0.91-1.26c0-0.46,0.01-1.69,0.01-1.69S351.15,408.14,353.32,408.14z"/>
			<path class="st2" d="M352.42,406.9c1.21,0.7,1.21,1.82,0.01,2.52c-1.2,0.7-3.15,0.7-4.35,0c-1.21-0.7-1.21-1.82-0.01-2.52
				C349.26,406.2,351.21,406.2,352.42,406.9z"/>
		</g>
	</g>
	<g>
		<polygon class="st3" points="362.96,413.72 356.62,417.41 350.23,413.72 356.58,410.03 		"/>
		<g>
			<path class="st1" d="M359.71,411.83c0,1.03-0.01,1.19-0.01,1.65c0,0.46-0.29,0.91-0.89,1.26c-1.2,0.7-3.15,0.7-4.35,0
				c-0.6-0.35-0.91-0.8-0.91-1.26c0-0.46,0.01-1.69,0.01-1.69S357.53,411.83,359.71,411.83z"/>
			<path class="st2" d="M358.8,410.58c1.21,0.7,1.21,1.82,0.01,2.52c-1.2,0.7-3.15,0.7-4.35,0c-1.21-0.7-1.21-1.82-0.01-2.52
				C355.65,409.89,357.6,409.89,358.8,410.58z"/>
		</g>
	</g>
	<g>
		<polygon class="st3" points="369.35,417.41 363,421.09 356.62,417.41 362.96,413.72 		"/>
		<g>
			<path class="st1" d="M366.09,415.52c0,1.03-0.01,1.19-0.01,1.65c0,0.46-0.29,0.91-0.89,1.26c-1.2,0.7-3.15,0.7-4.35,0
				c-0.6-0.35-0.91-0.8-0.91-1.26c0-0.46,0.01-1.69,0.01-1.69S363.92,415.52,366.09,415.52z"/>
			<path class="st2" d="M365.19,414.27c1.21,0.7,1.21,1.82,0.01,2.52c-1.2,0.7-3.15,0.7-4.35,0c-1.21-0.7-1.21-1.82-0.01-2.52
				C362.03,413.57,363.98,413.57,365.19,414.27z"/>
		</g>
	</g>
	<g>
		<polygon class="st3" points="375.73,421.09 369.39,424.78 363,421.09 369.35,417.41 		"/>
		<g>
			<path class="st1" d="M372.48,419.2c0,1.03-0.01,1.19-0.01,1.65c0,0.46-0.29,0.91-0.89,1.26c-1.2,0.7-3.15,0.7-4.35,0
				c-0.6-0.35-0.91-0.8-0.91-1.26c0-0.46,0.01-1.69,0.01-1.69S370.3,419.2,372.48,419.2z"/>
			<path class="st2" d="M371.57,417.96c1.21,0.7,1.21,1.82,0.01,2.52c-1.2,0.7-3.15,0.7-4.35,0c-1.21-0.7-1.21-1.82-0.01-2.52
				C368.42,417.26,370.36,417.26,371.57,417.96z"/>
		</g>
	</g>
</g>
</svg>
