<?xml version="1.0" encoding="utf-8"?>
<!-- Generator: Adobe Illustrator 30.5.1, SVG Export Plug-In . SVG Version: 9.03 Build 0)  -->
<svg version="1.0" id="block" xmlns="http://www.w3.org/2000/svg" xmlns:xlink="http://www.w3.org/1999/xlink" x="0px"
	 y="0px" viewBox="264.3 393.83 48.25 39.6" style="enable-background:new 0 0 595.28 841.89;" xml:space="preserve">
<style type="text/css">
	.st0{fill:#153266;}
	.st1{fill:#065595;}
	.st2{fill:#5D93C1;}
	.st3{fill:none;}
</style>
<g>
	<g>
		<polygon class="st0" points="307.55,413.72 307.52,421.05 294.84,428.43 294.86,421.09 		"/>
		<polygon class="st1" points="294.86,421.09 294.84,428.43 269.3,413.68 269.32,406.35 		"/>
		<polygon class="st2" points="307.55,413.72 294.86,421.09 269.32,406.35 282.01,398.97 		"/>
	</g>
	<g>
		<polygon class="st3" points="282.05,406.35 275.71,410.03 269.32,406.35 275.66,402.66 		"/>
		<g>
			<path class="st1" d="M278.8,404.46c0,1.03-0.01,1.19-0.01,1.65c0,0.46-0.29,0.91-0.89,1.26c-1.2,0.7-3.15,0.7-4.35,0
				c-0.6-0.35-0.91-0.8-0.91-1.26c0-0.46,0.01-1.69,0.01-1.69S276.62,404.46,278.8,404.46z"/>
			<path class="st2" d="M277.89,403.21c1.21,0.7,1.21,1.82,0.01,2.52c-1.2,0.7-3.15,0.7-4.35,0c-1.21-0.7-1.21-1.82-0.01-2.52
				C274.74,402.51,276.68,402.51,277.89,403.21z"/>
		</g>
	</g>
	<g>
		<polygon class="st3" points="288.43,410.03 282.09,413.72 275.71,410.03 282.05,406.34 		"/>
		<g>
			<path class="st1" d="M285.18,408.14c0,1.03-0.01,1.19-0.01,1.65c0,0.46-0.3,0.91-0.89,1.26c-1.2,0.7-3.15,0.7-4.35,0
				c-0.6-0.35-0.91-0.8-0.91-1.26c0-0.46,0.01-1.69,0.01-1.69S283.01,408.14,285.18,408.14z"/>
			<path class="st2" d="M284.28,406.9c1.21,0.7,1.21,1.82,0.01,2.52c-1.2,0.7-3.15,0.7-4.35,0c-1.21-0.7-1.21-1.82-0.01-2.52
				C281.12,406.2,283.07,406.2,284.28,406.9z"/>
		</g>
	</g>
	<g>
		<polygon class="st3" points="294.82,413.72 288.48,417.4 282.09,413.72 288.43,410.03 		"/>
		<g>
			<path class="st1" d="M291.57,411.83c0,1.03-0.01,1.19-0.01,1.65c0,0.46-0.29,0.91-0.89,1.26c-1.2,0.7-3.15,0.7-4.35,0
				c-0.6-0.35-0.91-0.8-0.91-1.26c0-0.46,0.01-1.69,0.01-1.69S289.39,411.83,291.57,411.83z"/>
			<path class="st2" d="M290.66,410.58c1.21,0.7,1.21,1.82,0.01,2.52c-1.2,0.7-3.15,0.7-4.35,0c-1.21-0.7-1.21-1.82-0.01-2.52
				C287.51,409.89,289.45,409.89,290.66,410.58z"/>
		</g>
	</g>
	<g>
		<polygon class="st3" points="301.2,417.4 294.86,421.09 288.48,417.4 294.82,413.72 		"/>
		<g>
			<path class="st1" d="M297.95,415.51c0,1.03-0.01,1.19-0.01,1.65c0,0.46-0.29,0.91-0.89,1.26c-1.2,0.7-3.15,0.7-4.35,0
				c-0.6-0.35-0.91-0.8-0.91-1.26c0-0.46,0.01-1.69,0.01-1.69S295.78,415.51,297.95,415.51z"/>
			<path class="st2" d="M297.04,414.27c1.21,0.7,1.21,1.82,0.01,2.52c-1.2,0.7-3.15,0.7-4.35,0c-1.21-0.7-1.21-1.82-0.01-2.52
				C293.89,413.57,295.84,413.57,297.04,414.27z"/>
		</g>
	</g>
	<g>
		<polygon class="st3" points="288.39,402.66 282.05,406.35 275.66,402.66 282.01,398.97 		"/>
		<g>
			<path class="st1" d="M285.14,400.77c0,1.03-0.01,1.19-0.01,1.65c0,0.46-0.3,0.91-0.89,1.26c-1.2,0.7-3.15,0.7-4.35,0
				c-0.6-0.35-0.91-0.8-0.91-1.26c0-0.46,0.01-1.69,0.01-1.69S282.96,400.77,285.14,400.77z"/>
			<path class="st2" d="M284.23,399.53c1.21,0.7,1.21,1.82,0.01,2.52c-1.2,0.7-3.15,0.7-4.35,0c-1.21-0.7-1.21-1.82-0.01-2.52
				C281.08,398.83,283.03,398.83,284.23,399.53z"/>
		</g>
	</g>
	<g>
		<polygon class="st3" points="294.78,406.35 288.43,410.03 282.05,406.35 288.39,402.66 		"/>
		<g>
			<path class="st1" d="M291.53,404.46c0,1.03-0.01,1.19-0.01,1.65c0,0.46-0.29,0.91-0.89,1.26c-1.2,0.7-3.15,0.7-4.35,0
				c-0.6-0.35-0.91-0.8-0.91-1.26c0-0.46,0.01-1.69,0.01-1.69S289.35,404.46,291.53,404.46z"/>
			<path class="st2" d="M290.62,403.21c1.21,0.7,1.21,1.82,0.01,2.52c-1.2,0.7-3.15,0.7-4.35,0c-1.21-0.7-1.21-1.82-0.01-2.52
				C287.46,402.51,289.41,402.51,290.62,403.21z"/>
		</g>
	</g>
	<g>
		<polygon class="st3" points="301.16,410.03 294.82,413.72 288.43,410.03 294.78,406.35 		"/>
		<g>
			<path class="st1" d="M297.91,408.14c0,1.03-0.01,1.19-0.01,1.65c0,0.46-0.29,0.91-0.89,1.26c-1.2,0.7-3.15,0.7-4.35,0
				c-0.6-0.35-0.91-0.8-0.91-1.26c0-0.46,0.01-1.69,0.01-1.69S295.73,408.14,297.91,408.14z"/>
			<path class="st2" d="M297,406.9c1.21,0.7,1.21,1.82,0.01,2.52c-1.2,0.7-3.15,0.7-4.35,0c-1.21-0.7-1.21-1.82-0.01-2.52
				C293.85,406.2,295.8,406.2,297,406.9z"/>
		</g>
	</g>
	<g>
		<polygon class="st3" points="307.55,413.72 301.2,417.41 294.82,413.72 301.16,410.03 		"/>
		<g>
			<path class="st1" d="M304.29,411.83c0,1.03-0.01,1.19-0.01,1.65c0,0.46-0.3,0.91-0.89,1.26c-1.2,0.7-3.15,0.7-4.35,0
				c-0.6-0.35-0.91-0.8-0.91-1.26c0-0.46,0.01-1.69,0.01-1.69S302.12,411.83,304.29,411.83z"/>
			<path class="st2" d="M303.39,410.58c1.21,0.7,1.21,1.82,0.01,2.52c-1.2,0.7-3.15,0.7-4.35,0c-1.21-0.7-1.21-1.82-0.01-2.52
				C300.23,409.89,302.18,409.89,303.39,410.58z"/>
		</g>
	</g>
</g>
</svg>
