<?xml version="1.0" encoding="utf-8"?>
<!-- Generator: Adobe Illustrator 30.5.1, SVG Export Plug-In . SVG Version: 9.03 Build 0)  -->
<svg version="1.0" id="block" xmlns="http://www.w3.org/2000/svg" xmlns:xlink="http://www.w3.org/1999/xlink" x="0px"
	 y="0px" viewBox="375.13 393.83 73.79 54.34" style="enable-background:new 0 0 595.28 841.89;" xml:space="preserve">
<style type="text/css">
	.st0{fill:#153266;}
	.st1{fill:#065595;}
	.st2{fill:#5D93C1;}
	.st3{fill:none;}
</style>
<g>
	<g>
		<polygon class="st0" points="443.92,428.46 443.89,435.8 431.21,443.17 431.23,435.84 		"/>
		<polygon class="st1" points="431.23,435.84 431.21,443.17 380.13,413.68 380.15,406.35 		"/>
		<polygon class="st2" points="443.92,428.46 431.23,435.84 380.15,406.35 392.84,398.97 		"/>
	</g>
	<g>
		<polygon class="st3" points="392.88,406.35 386.54,410.03 380.15,406.35 386.49,402.66 		"/>
		<g>
			<path class="st1" d="M389.63,404.46c0,1.03-0.01,1.19-0.01,1.65c0,0.46-0.29,0.91-0.89,1.26c-1.2,0.7-3.15,0.7-4.35,0
				c-0.6-0.35-0.91-0.8-0.91-1.26c0-0.46,0.01-1.69,0.01-1.69S387.45,404.46,389.63,404.46z"/>
			<path class="st2" d="M388.72,403.21c1.21,0.7,1.21,1.82,0.01,2.52c-1.2,0.7-3.15,0.7-4.35,0c-1.21-0.7-1.21-1.82-0.01-2.52
				C385.57,402.51,387.51,402.51,388.72,403.21z"/>
		</g>
	</g>
	<g>
		<polygon class="st3" points="399.26,410.03 392.92,413.72 386.54,410.03 392.88,406.35 		"/>
		<g>
			<path class="st1" d="M396.01,408.14c0,1.03-0.01,1.19-0.01,1.65c0,0.46-0.29,0.91-0.89,1.26c-1.2,0.7-3.15,0.7-4.35,0
				c-0.6-0.35-0.91-0.8-0.91-1.26c0-0.46,0.01-1.69,0.01-1.69S393.84,408.14,396.01,408.14z"/>
			<path class="st2" d="M395.11,406.9c1.21,0.7,1.21,1.82,0.01,2.52c-1.2,0.7-3.15,0.7-4.35,0c-1.21-0.7-1.21-1.82-0.01-2.52
				C391.95,406.2,393.9,406.2,395.11,406.9z"/>
		</g>
	</g>
	<g>
		<polygon class="st3" points="405.65,413.72 399.31,417.4 392.92,413.72 399.26,410.03 		"/>
		<g>
			<path class="st1" d="M402.4,411.83c0,1.03-0.01,1.19-0.01,1.65c0,0.46-0.29,0.91-0.89,1.26c-1.2,0.7-3.15,0.7-4.35,0
				c-0.6-0.35-0.91-0.8-0.91-1.26c0-0.46,0.01-1.69,0.01-1.69S400.22,411.83,402.4,411.83z"/>
			<path class="st2" d="M401.49,410.58c1.21,0.7,1.21,1.82,0.01,2.52c-1.2,0.7-3.15,0.7-4.35,0c-1.21-0.7-1.21-1.82-0.01-2.52
				C398.34,409.89,400.28,409.89,401.49,410.58z"/>
		</g>
	</g>
	<g>
		<polygon class="st3" points="412.03,417.4 405.69,421.09 399.31,417.4 405.65,413.72 		"/>
		<g>
			<path class="st1" d="M408.78,415.51c0,1.03-0.01,1.19-0.01,1.65c0,0.46-0.3,0.91-0.89,1.26c-1.2,0.7-3.15,0.7-4.35,0
				c-0.6-0.35-0.91-0.8-0.91-1.26c0-0.46,0.01-1.69,0.01-1.69S406.61,415.51,408.78,415.51z"/>
			<path class="st2" d="M407.88,414.27c1.21,0.7,1.21,1.82,0.01,2.52c-1.2,0.7-3.15,0.7-4.35,0c-1.21-0.7-1.21-1.82-0.01-2.52
				C404.72,413.57,406.67,413.57,407.88,414.27z"/>
		</g>
	</g>
	<g>
		<polygon class="st3" points="418.42,421.09 412.08,424.78 405.69,421.09 412.03,417.4 		"/>
		<g>
			<path class="st1" d="M415.17,419.2c0,1.03-0.01,1.19-0.01,1.65c0,0.46-0.29,0.91-0.89,1.26c-1.2,0.7-3.15,0.7-4.35,0
				c-0.6-0.35-0.91-0.8-0.91-1.26c0-0.46,0.01-1.69,0.01-1.69S412.99,419.2,415.17,419.2z"/>
			<path class="st2" d="M414.26,417.95c1.21,0.7,1.21,1.82,0.01,2.52c-1.2,0.7-3.15,0.7-4.35,0c-1.21-0.7-1.21-1.82-0.01-2.52
				C411.11,417.26,413.05,417.26,414.26,417.95z"/>
		</g>
	</g>
	<g>
		<polygon class="st3" points="424.8,424.78 418.46,428.46 412.08,424.78 418.42,421.09 		"/>
		<g>
			<path class="st1" d="M421.55,422.89c0,1.03-0.01,1.19-0.01,1.65c0,0.46-0.29,0.91-0.89,1.26c-1.2,0.7-3.15,0.7-4.35,0
				c-0.6-0.35-0.91-0.8-0.91-1.26c0-0.46,0.01-1.69,0.01-1.69S419.38,422.89,421.55,422.89z"/>
			<path class="st2" d="M420.64,421.64c1.21,0.7,1.21,1.82,0.01,2.52c-1.2,0.7-3.15,0.7-4.35,0c-1.21-0.7-1.21-1.82-0.01-2.52
				C417.49,420.94,419.44,420.94,420.64,421.64z"/>
		</g>
	</g>
	<g>
		<polygon class="st3" points="431.19,428.46 424.85,432.15 418.46,428.46 424.8,424.78 		"/>
		<g>
			<path class="st1" d="M427.94,426.57c0,1.03-0.01,1.19-0.01,1.65c0,0.46-0.3,0.91-0.89,1.26c-1.2,0.7-3.15,0.7-4.35,0
				c-0.6-0.35-0.91-0.8-0.91-1.26c0-0.46,0.01-1.69,0.01-1.69S425.76,426.57,427.94,426.57z"/>
			<path class="st2" d="M427.03,425.33c1.21,0.7,1.21,1.82,0.01,2.52c-1.2,0.7-3.15,0.7-4.35,0c-1.21-0.7-1.21-1.82-0.01-2.52
				C423.88,424.63,425.82,424.63,427.03,425.33z"/>
		</g>
	</g>
	<g>
		<polygon class="st3" points="437.57,432.15 431.23,435.83 424.85,432.15 431.19,428.46 		"/>
		<g>
			<path class="st1" d="M434.32,430.26c0,1.03-0.01,1.19-0.01,1.65c0,0.46-0.29,0.91-0.89,1.26c-1.2,0.7-3.15,0.7-4.35,0
				c-0.6-0.35-0.91-0.8-0.91-1.26c0-0.46,0.01-1.69,0.01-1.69S432.14,430.26,434.32,430.26z"/>
			<path class="st2" d="M433.41,429.01c1.21,0.7,1.21,1.82,0.02,2.52c-1.2,0.7-3.15,0.7-4.35,0c-1.21-0.7-1.21-1.82-0.01-2.52
				C430.26,428.32,432.21,428.32,433.41,429.01z"/>
		</g>
	</g>
	<g>
		<polygon class="st3" points="399.22,402.66 392.88,406.35 386.49,402.66 392.84,398.97 		"/>
		<g>
			<path class="st1" d="M395.97,400.77c0,1.03-0.01,1.19-0.01,1.65c0,0.46-0.29,0.91-0.89,1.26c-1.2,0.7-3.15,0.7-4.35,0
				c-0.6-0.35-0.91-0.8-0.91-1.26c0-0.46,0.01-1.69,0.01-1.69S393.79,400.77,395.97,400.77z"/>
			<path class="st2" d="M395.06,399.53c1.21,0.7,1.21,1.82,0.01,2.52c-1.2,0.7-3.15,0.7-4.35,0c-1.21-0.7-1.21-1.82-0.01-2.52
				C391.91,398.83,393.86,398.83,395.06,399.53z"/>
		</g>
	</g>
	<g>
		<polygon class="st3" points="405.61,406.35 399.26,410.03 392.88,406.35 399.22,402.66 		"/>
		<g>
			<path class="st1" d="M402.36,404.46c0,1.03-0.01,1.19-0.01,1.65c0,0.46-0.29,0.91-0.89,1.26c-1.2,0.7-3.15,0.7-4.35,0
				c-0.6-0.35-0.91-0.8-0.91-1.26c0-0.46,0.01-1.69,0.01-1.69S400.18,404.46,402.36,404.46z"/>
			<path class="st2" d="M401.45,403.21c1.21,0.7,1.21,1.82,0.01,2.52c-1.2,0.7-3.15,0.7-4.35,0c-1.21-0.7-1.21-1.82-0.01-2.52
				C398.29,402.51,400.24,402.51,401.45,403.21z"/>
		</g>
	</g>
	<g>
		<polygon class="st3" points="411.99,410.03 405.65,413.72 399.26,410.03 405.61,406.35 		"/>
		<g>
			<path class="st1" d="M408.74,408.14c0,1.03-0.01,1.19-0.01,1.65c0,0.46-0.29,0.91-0.89,1.26c-1.2,0.7-3.15,0.7-4.35,0
				c-0.6-0.35-0.91-0.8-0.91-1.26c0-0.46,0.01-1.69,0.01-1.69S406.56,408.14,408.74,408.14z"/>
			<path class="st2" d="M407.83,406.9c1.21,0.7,1.21,1.82,0.01,2.52c-1.2,0.7-3.15,0.7-4.35,0c-1.21-0.7-1.21-1.82-0.01-2.52
				C404.68,406.2,406.63,406.2,407.83,406.9z"/>
		</g>
	</g>
	<g>
		<polygon class="st3" points="418.38,413.72 412.03,417.41 405.65,413.72 411.99,410.03 		"/>
		<g>
			<path class="st1" d="M415.13,411.83c0,1.03-0.01,1.19-0.01,1.65c0,0.46-0.29,0.91-0.89,1.26c-1.2,0.7-3.15,0.7-4.35,0
				c-0.6-0.35-0.91-0.8-0.91-1.26c0-0.46,0.01-1.69,0.01-1.69S412.95,411.83,415.13,411.83z"/>
			<path class="st2" d="M414.22,410.58c1.21,0.7,1.21,1.82,0.01,2.52c-1.2,0.7-3.15,0.7-4.35,0c-1.21-0.7-1.21-1.82-0.01-2.52
				C411.06,409.89,413.01,409.89,414.22,410.58z"/>
		</g>
	</g>
	<g>
		<polygon class="st3" points="424.76,417.41 418.42,421.09 412.03,417.41 418.38,413.72 		"/>
		<g>
			<path class="st1" d="M421.51,415.52c0,1.03-0.01,1.19-0.01,1.65c0,0.46-0.29,0.91-0.89,1.26c-1.2,0.7-3.15,0.7-4.35,0
				c-0.6-0.35-0.91-0.8-0.91-1.26c0-0.46,0.01-1.69,0.01-1.69S419.33,415.52,421.51,415.52z"/>
			<path class="st2" d="M420.6,414.27c1.21,0.7,1.21,1.82,0.01,2.52c-1.2,0.7-3.15,0.7-4.35,0c-1.21-0.7-1.21-1.82-0.01-2.52
				C417.45,413.57,419.4,413.57,420.6,414.27z"/>
		</g>
	</g>
	<g>
		<polygon class="st3" points="431.15,421.09 424.8,424.78 418.42,421.09 424.76,417.41 		"/>
		<g>
			<path class="st1" d="M427.89,419.2c0,1.03-0.01,1.19-0.01,1.65c0,0.46-0.3,0.91-0.89,1.26c-1.2,0.7-3.15,0.7-4.35,0
				c-0.6-0.35-0.91-0.8-0.91-1.26c0-0.46,0.01-1.69,0.01-1.69S425.72,419.2,427.89,419.2z"/>
			<path class="st2" d="M426.99,417.96c1.21,0.7,1.21,1.82,0.01,2.52c-1.2,0.7-3.15,0.7-4.35,0c-1.21-0.7-1.21-1.82-0.01-2.52
				C423.83,417.26,425.78,417.26,426.99,417.96z"/>
		</g>
	</g>
	<g>
		<polygon class="st3" points="437.53,424.78 431.19,428.46 424.8,424.78 431.15,421.09 		"/>
		<g>
			<path class="st1" d="M434.28,422.89c0,1.03-0.01,1.19-0.01,1.65c0,0.46-0.29,0.91-0.89,1.26c-1.2,0.7-3.15,0.7-4.35,0
				c-0.6-0.35-0.91-0.8-0.91-1.26c0-0.46,0.01-1.69,0.01-1.69S432.1,422.89,434.28,422.89z"/>
			<path class="st2" d="M433.37,421.64c1.21,0.7,1.21,1.82,0.01,2.52c-1.2,0.7-3.15,0.7-4.35,0c-1.21-0.7-1.21-1.82-0.01-2.52
				C430.22,420.95,432.17,420.95,433.37,421.64z"/>
		</g>
	</g>
	<g>
		<polygon class="st3" points="443.92,428.46 437.57,432.15 431.19,428.46 437.53,424.78 		"/>
		<g>
			<path class="st1" d="M440.66,426.57c0,1.03-0.01,1.19-0.01,1.65c0,0.46-0.29,0.91-0.89,1.26c-1.2,0.7-3.15,0.7-4.35,0
				c-0.6-0.35-0.91-0.8-0.91-1.26c0-0.46,0.01-1.69,0.01-1.69S438.49,426.57,440.66,426.57z"/>
			<path class="st2" d="M439.76,425.33c1.21,0.7,1.21,1.82,0.01,2.52c-1.2,0.7-3.15,0.7-4.35,0c-1.21-0.7-1.21-1.82-0.02-2.52
				C436.6,424.63,438.55,424.63,439.76,425.33z"/>
		</g>
	</g>
</g>
</svg>
