<?xml version="1.0" encoding="utf-8"?>
<!-- Generator: Adobe Illustrator 30.5.1, SVG Export Plug-In . SVG Version: 9.03 Build 0)  -->
<svg version="1.0" id="?łņØ┤??1" xmlns="http://www.w3.org/2000/svg" xmlns:xlink="http://www.w3.org/1999/xlink" x="0px"
	 y="0px" viewBox="147.08 393.83 35.48 32.22" style="enable-background:new 0 0 595.28 841.89;" xml:space="preserve">
<style type="text/css">
	.st0{fill:#153266;}
	.st1{fill:#065595;}
	.st2{fill:#5D93C1;}
	.st3{fill:none;}
</style>
<g>
	<g>
		<polygon class="st0" points="177.56,406.35 177.54,413.68 164.85,421.05 164.87,413.72 		"/>
		<polygon class="st1" points="164.87,413.72 164.85,421.05 152.08,413.68 152.11,406.35 		"/>
		<polygon class="st2" points="177.56,406.35 164.87,413.72 152.11,406.35 164.79,398.97 		"/>
	</g>
	<g>
		<polygon class="st3" points="164.83,406.35 158.49,410.03 152.11,406.35 158.45,402.66 		"/>
		<g>
			<path class="st1" d="M161.58,404.46c0,1.03-0.01,1.19-0.01,1.65c0,0.46-0.29,0.91-0.89,1.26c-1.2,0.7-3.15,0.7-4.35,0
				c-0.6-0.35-0.91-0.8-0.91-1.26c0-0.46,0.01-1.69,0.01-1.69S159.41,404.46,161.58,404.46z"/>
			<path class="st2" d="M160.68,403.21c1.21,0.7,1.21,1.82,0.01,2.52c-1.2,0.7-3.15,0.7-4.35,0c-1.21-0.7-1.21-1.82-0.01-2.52
				C157.52,402.51,159.47,402.51,160.68,403.21z"/>
		</g>
	</g>
	<g>
		<polygon class="st3" points="171.22,410.03 164.88,413.72 158.49,410.03 164.83,406.35 		"/>
		<g>
			<path class="st1" d="M167.97,408.14c0,1.03-0.01,1.19-0.01,1.65c0,0.46-0.29,0.91-0.89,1.26c-1.2,0.7-3.15,0.7-4.35,0
				c-0.6-0.35-0.91-0.8-0.91-1.26c0-0.46,0.01-1.69,0.01-1.69S165.79,408.14,167.97,408.14z"/>
			<path class="st2" d="M167.06,406.9c1.21,0.7,1.21,1.82,0.01,2.52c-1.2,0.7-3.15,0.7-4.35,0c-1.21-0.7-1.21-1.82-0.01-2.52
				C163.91,406.2,165.85,406.2,167.06,406.9z"/>
		</g>
	</g>
	<g>
		<polygon class="st3" points="171.18,402.66 164.83,406.35 158.45,402.66 164.79,398.97 		"/>
		<g>
			<path class="st1" d="M167.93,400.77c0,1.03-0.01,1.19-0.01,1.65c0,0.46-0.29,0.91-0.89,1.26c-1.2,0.7-3.15,0.7-4.35,0
				c-0.6-0.35-0.91-0.8-0.91-1.26c0-0.46,0.01-1.69,0.01-1.69S165.75,400.77,167.93,400.77z"/>
			<path class="st2" d="M167.02,399.53c1.21,0.7,1.21,1.82,0.01,2.52s-3.15,0.7-4.35,0c-1.21-0.7-1.21-1.82-0.01-2.52
				C163.86,398.83,165.81,398.83,167.02,399.53z"/>
		</g>
	</g>
	<g>
		<polygon class="st3" points="177.56,406.35 171.22,410.03 164.83,406.35 171.18,402.66 		"/>
		<g>
			<path class="st1" d="M174.31,404.46c0,1.03-0.01,1.19-0.01,1.65c0,0.46-0.29,0.91-0.89,1.26c-1.2,0.7-3.15,0.7-4.35,0
				c-0.6-0.35-0.91-0.8-0.91-1.26c0-0.46,0.01-1.69,0.01-1.69S172.13,404.46,174.31,404.46z"/>
			<path class="st2" d="M173.4,403.21c1.21,0.7,1.21,1.82,0.01,2.52c-1.2,0.7-3.15,0.7-4.35,0c-1.21-0.7-1.21-1.82-0.01-2.52
				C170.25,402.51,172.2,402.51,173.4,403.21z"/>
		</g>
	</g>
</g>
</svg>
